<?xml version="1.0" encoding="UTF-8" standalone="no"?>
<!-- Created with Inkscape (http://www.inkscape.org/) -->

<svg
   xmlns:dc="http://purl.org/dc/elements/1.1/"
   xmlns:cc="http://creativecommons.org/ns#"
   xmlns:rdf="http://www.w3.org/1999/02/22-rdf-syntax-ns#"
   xmlns:svg="http://www.w3.org/2000/svg"
   xmlns="http://www.w3.org/2000/svg"
   version="1.1"
   width="32"
   height="32"
   id="svg2">
  <defs
     id="defs3607" />
  <metadata
     id="metadata3610">
    <rdf:RDF>
      <cc:Work
         rdf:about="">
        <dc:format>image/svg+xml</dc:format>
        <dc:type
           rdf:resource="http://purl.org/dc/dcmitype/StillImage" />
        <dc:title></dc:title>
      </cc:Work>
    </rdf:RDF>
  </metadata>
  <g
     transform="translate(0,-1020.3622)"
     id="layer1">
    <path
       d="m -3,1696 a 26,26 0 1 1 -52,0 26,26 0 1 1 52,0 z"
       transform="matrix(0.61538462,0,0,0.61538462,33.846154,-7.3301156)"
       id="path5395"
       style="color:#000000;fill:#eeeeec;fill-opacity:1;fill-rule:nonzero;stroke:none;stroke-width:0.192;marker:none;visibility:visible;display:inline;overflow:visible;enable-background:accumulate" />
    <path
       d="m 27.911794,1029.6114 c -0.0755,-0.1304 -0.26309,-0.1215 -0.99108,0.072 -2.10058,0.5599 -5.00136,1.868 -7.8656,3.5748 -1.24604,0.7426 -1.44615,0.8548 -1.73222,0.8669 -0.17699,0.01 -0.33486,0.014 -0.36137,0.01 -0.0268,-0.01 -0.80701,-1.0258 -1.71399,-2.2758 l -1.64936,-2.2799 0.91012,-0.5589 c 1.13935,-0.6914 1.10586,-0.8364 -0.0362,-0.1789 -0.4571,0.2633 -0.89709,0.4618 -0.96798,0.4588 -0.082,0 -0.24914,-0.2009 -0.48574,-0.5526 -0.47642,-0.7093 -0.46585,-0.837 0.1553,-1.2892 0.48454,-0.3527 0.82159,-0.7127 0.75166,-0.8338 -0.0244,-0.042 -0.22421,-0.064 -0.45478,-0.037 -0.38232,0.045 -0.57106,0.12 -1.96097,0.9323 -1.47866,0.8641 -1.9553599,1.2103 -2.4689699,1.7253 -0.36645,0.3673 -0.29386,0.407 0.32298,0.2134 0.13653,-0.043 0.2838,-0.029 0.36546,0.056 0.0729,0.074 0.6323099,1.7676 1.2584999,3.7384 l 1.13264,3.5778 -1.09177,0.7636 c -0.61048,0.4164 -1.5204499,1.0651 -2.0086999,1.4264 -0.48857,0.3612 -0.90287,0.627 -0.94587,0.6127 -0.0426,-0.014 -0.60432,-0.5323 -1.23289,-1.1542 -0.62851,-0.6219 -1.19887,-1.1449 -1.27212,-1.1648 -0.0728,-0.02 -0.44226,0.091 -0.81135,0.2685 l -0.67864,0.3252 0.27182,0.6428 c 0.14654,0.3498 0.56848,1.2986 0.91489,2.1042 0.54126,1.2585 0.60042,1.4812 0.50813,1.5725 -0.13808,0.1372 -0.0431,0.3012 0.14434,0.25 0.12481,-0.034 0.31668,0.2109 1.4896,1.7721 0.7442,0.9908 1.36163,1.8008 1.37531,1.8051 0.0659,0.02 1.2779599,-0.8985 1.2985799,-0.983 0.0132,-0.053 -0.1586099,-0.7895 -0.3834299,-1.6447 -0.22198,-0.8559 -0.39398,-1.5966 -0.38336,-1.6446 0.0111,-0.047 0.7097399,-0.4155 1.5677299,-0.8053 0.858,-0.3898 1.84968,-0.8412 2.21455,-1.012 l 0.65374,-0.3107 2.58594,2.8052 c 1.85065,2.0298 2.5479,2.8526 2.54371,2.9632 -0.002,0.084 -0.10714,0.2436 -0.22413,0.3622 -0.75456,0.7723 0.75396,0.2549 2.9518,-1.0045 1.19334,-0.6843 1.41342,-0.8241 1.65234,-1.1205 0.49363,-0.6126 0.16829,-0.7059 -0.84232,-0.2469 -0.27329,0.1242 -0.58399,0.2163 -0.68628,0.1963 -0.19998,-0.039 -0.44646,-0.4107 -0.70934,-1.0566 l -0.13734,-0.3539 0.89963,-0.5194 c 0.55905,-0.3227 0.90649,-0.5653 0.8815,-0.6088 -0.0249,-0.043 -0.384,0.1217 -0.91799,0.43 -0.47949,0.2769 -0.88602,0.5023 -0.91431,0.4945 -0.0381,-0.01 -2.33791,-5.0643 -2.35311,-5.1723 0.007,-0.012 0.10619,-0.184 0.22422,-0.3624 0.19782,-0.3046 0.28679,-0.3507 1.26684,-0.8646 1.14389,-0.5999 3.69383,-2.2025 4.74703,-2.9739 1.74636,-1.2792 3.33253,-2.7699 3.19373,-3.0101 z"
       id="path5397"
       style="fill:#34495e;fill-opacity:1;fill-rule:evenodd;stroke:none;display:inline" />
  </g>
</svg>
